<?xml version="1.0" encoding="UTF-8"?>
<svg width="355px" height="48px" viewBox="0 0 355 48" version="1.1" xmlns="http://www.w3.org/2000/svg" xmlns:xlink="http://www.w3.org/1999/xlink">
    <title>passport-svg</title>
    <g id="M2" stroke="none" stroke-width="1" fill="none" fill-rule="evenodd">
        <g id="Passport_M2" transform="translate(-308.000000, -236.000000)">
            <g id="s1---main-banner" transform="translate(250.000000, 175.000000)">
                <g id="passport-svg" transform="translate(58.000000, 61.000000)">
                    <g id="KPBS" transform="translate(0.000000, 7.000000)" fill="#FFFFFF" fill-rule="nonzero">
                        <polygon id="Path" points="18.2035794 31.5428571 7.32751678 17.9657143 7.32751678 31.5428571 0 31.5428571 0 0.457142857 7.32751678 0.457142857 7.32751678 13.8971429 18.0653244 0.457142857 26.6371365 0.457142857 13.6872483 15.4514286 27.0519016 31.5428571"></polygon>
                        <path d="M39.7252796,0.457142857 C42.3060403,0.457142857 44.51044,0.883809524 46.3384787,1.73714286 C48.1665175,2.59047619 49.5490679,3.77142857 50.4861298,5.28 C51.4231916,6.78857143 51.8917226,8.53333333 51.8917226,10.5142857 C51.8917226,12.7085714 51.3771066,14.6285714 50.3478747,16.2742857 C49.3186428,17.92 47.8900075,19.1847619 46.0619687,20.0685714 C44.2339299,20.952381 42.1370619,21.3942857 39.7713647,21.3942857 L37.098434,21.3942857 L37.098434,31.5428571 L29.7709172,31.5428571 L29.7709172,0.457142857 L39.7252796,0.457142857 Z M39.0340045,15.6342857 C40.7545116,15.6342857 42.0756152,15.1695238 42.9973154,14.24 C43.9190157,13.3104762 44.3798658,12.1447619 44.3798658,10.7428571 C44.3798658,9.31047619 43.9113348,8.19809524 42.9742729,7.40571429 C42.037211,6.61333333 40.8005966,6.21714286 39.2644295,6.21714286 L37.098434,6.21714286 L37.098434,15.6342857 L39.0340045,15.6342857 Z" id="Shape"></path>
                        <path d="M72.8604027,14.7657143 C74.4272931,15.1009524 75.8328859,15.9161905 77.0771812,17.2114286 C78.3214765,18.5066667 78.9436242,20.2209524 78.9436242,22.3542857 C78.9436242,25.1885714 77.9297539,27.4285714 75.9020134,29.0742857 C73.8742729,30.72 70.9862789,31.5428571 67.2380313,31.5428571 L56.2697987,31.5428571 L56.2697987,0.457142857 L66.4545861,0.457142857 C69.8341536,0.457142857 72.4225951,1.12 74.2199105,2.44571429 C76.017226,3.77142857 76.9158837,5.71428571 76.9158837,8.27428571 C76.9158837,9.88952381 76.5318419,11.2609524 75.7637584,12.3885714 C74.9956749,13.5161905 74.0278896,14.3085714 72.8604027,14.7657143 Z M63.5512304,5.85142857 L63.5512304,12.8914286 L65.6711409,12.8914286 C66.9615213,12.8914286 67.952349,12.5561905 68.6436242,11.8857143 C69.3348993,11.2152381 69.6805369,10.3161905 69.6805369,9.18857143 C69.6805369,8.12190476 69.350261,7.29904762 68.6897092,6.72 C68.0291573,6.14095238 67.0690529,5.85142857 65.809396,5.85142857 L63.5512304,5.85142857 Z M66.4545861,26.0114286 C68.1443699,26.0114286 69.3886652,25.6533333 70.187472,24.9371429 C70.9862789,24.2209524 71.3856823,23.2228571 71.3856823,21.9428571 C71.3856823,20.7238095 70.9785981,19.7714286 70.1644295,19.0857143 C69.350261,18.4 68.1136465,18.0571429 66.4545861,18.0571429 L63.5512304,18.0571429 L63.5512304,26.0114286 L66.4545861,26.0114286 Z" id="Shape"></path>
                        <path d="M91.0178971,32 C89.4202834,32 87.8380313,31.847619 86.2711409,31.5428571 C84.7042506,31.2380952 83.3524236,30.8266667 82.21566,30.3085714 L82.21566,23.5428571 C83.4138702,24.1828571 84.7580164,24.7238095 86.2480984,25.1657143 C87.7381805,25.607619 89.1898583,25.8285714 90.603132,25.8285714 C92.2621924,25.8285714 93.4988069,25.5619048 94.3129754,25.0285714 C95.1271439,24.4952381 95.5342282,23.7561905 95.5342282,22.8114286 C95.5342282,21.8971429 95.1041014,21.127619 94.2438479,20.5028571 C93.3835943,19.8780952 91.8320656,19.0780952 89.5892617,18.1028571 C86.9163311,16.9447619 84.9730798,15.6571429 83.7595078,14.24 C82.5459359,12.8228571 81.9391499,11.0780952 81.9391499,9.00571429 C81.9391499,7.14666667 82.4384042,5.53904762 83.4369128,4.18285714 C84.4354213,2.82666667 85.8102908,1.79047619 87.5615213,1.07428571 C89.3127517,0.358095238 91.2944072,0 93.5064877,0 C95.2269948,0 96.6556301,0.099047619 97.7923937,0.297142857 C98.9291573,0.495238095 100.050559,0.761904762 101.1566,1.09714286 L101.1566,7.40571429 C98.944519,6.58285714 96.7017151,6.17142857 94.4281879,6.17142857 C92.9534676,6.17142857 91.7859806,6.4 90.9257271,6.85714286 C90.0654735,7.31428571 89.6353468,8 89.6353468,8.91428571 C89.6353468,9.49333333 89.8427293,9.98857143 90.2574944,10.4 C90.6722595,10.8114286 91.2252796,11.192381 91.9165548,11.5428571 C92.60783,11.8933333 93.9058911,12.48 95.8107383,13.3028571 C98.4222222,14.4609524 100.273304,15.7790476 101.363982,17.2571429 C102.454661,18.7352381 103,20.4495238 103,22.4 C103,24.2895238 102.53915,25.9580952 101.61745,27.4057143 C100.695749,28.8533333 99.3362416,29.9809524 97.5389262,30.7885714 C95.7416107,31.5961905 93.5679344,32 91.0178971,32 Z" id="Path"></path>
                    </g>
                    <g id="passport--black" transform="translate(117.000000, 0.000000)">
                        <circle id="Oval" fill="#5680FF" fill-rule="nonzero" cx="21.5" cy="21.5" r="21.5"></circle>
                        <path d="M2.30357143,21.5241438 C2.31623614,16.4138771 4.35841669,11.5179465 7.98085331,7.91340875 C11.6032899,4.30887104 16.509249,2.29099368 21.6194676,2.30363042 L21.6194676,2.30363042 C32.2024058,2.36959659 40.7356326,10.9883007 40.6962931,21.5714702 C40.6566807,32.1546397 32.0593956,40.7094446 21.4762601,40.6964137 C10.8931247,40.683353 2.31695615,32.1073785 2.30357143,21.5241438 L2.30357143,21.5241438 Z M17.8423493,17.782849 L21.5118914,5.31585066 C12.6083379,5.34169166 5.38227444,12.5251912 5.30375084,21.4285197 L17.8423493,17.782849 Z M5.30375084,21.5958619 L17.8303964,25.2534856 L21.5118914,37.720484 C12.6037202,37.6945742 5.37576485,30.5038636 5.30375084,21.5958619 Z M21.6194676,37.720484 L25.3487742,25.2534856 L37.8754198,21.5958619 C37.8032176,30.5224712 30.5462848,37.720776 21.6194676,37.720484 Z M37.8873727,21.4285197 L37.8873727,21.4285197 C37.8021307,12.5046614 30.5436489,5.31544354 21.6194676,5.31585066 L25.3487742,17.8426141 L37.8873727,21.4285197 Z" id="Shape" fill="#FFFFFF"></path>
                        <path d="M31.4821429,11.5178571 L28.6755864,16.6718419 L26.8713716,16.138671 L26.3407202,14.3021937 L31.4821429,11.5178571 Z M26.3407202,28.6741098 L26.8713716,26.8731772 L28.6755864,26.3400064 L31.4821429,31.4821429 L26.3407202,28.6741098 Z M14.3244136,26.3044616 L11.5178571,31.4821429 L16.6592798,28.6741098 L16.1286284,26.8731772 L14.3244136,26.3044616 Z M16.6828643,14.2903455 L16.1522129,16.0912781 L14.3244136,16.6718419 L11.5178571,11.5178571 L16.6828643,14.2903455 Z" id="Shape" fill="#FFFFFF"></path>
                    </g>
                    <g id="Passport" transform="translate(175.000000, 7.000000)" fill="#FFFFFF" fill-rule="nonzero">
                        <path d="M9.96412096,0 C12.5474116,0 14.7539723,0.430930931 16.5838032,1.29279279 C18.413634,2.15465465 19.7975397,3.34740991 20.7355202,4.87105856 C21.6735008,6.39470721 22.142491,8.15690691 22.142491,10.1576577 C22.142491,12.3738739 21.6273706,14.3130631 20.5971297,15.9752252 C19.5668888,17.6373874 18.1368529,18.9147898 16.307022,19.8074324 C14.4771912,20.7000751 12.3782676,21.1463964 10.0102512,21.1463964 L7.33470015,21.1463964 L7.33470015,31.3963964 L0,31.3963964 L0,0 L9.96412096,0 Z M9.27216812,15.3288288 C10.9943619,15.3288288 12.3167606,14.8594219 13.2393644,13.9206081 C14.1619682,12.9817943 14.6232701,11.8044294 14.6232701,10.3885135 C14.6232701,8.94181682 14.1542799,7.81831832 13.2162993,7.01801802 C12.2783188,6.21771772 11.0404921,5.81756757 9.50281907,5.81756757 L7.33470015,5.81756757 L7.33470015,15.3288288 L9.27216812,15.3288288 Z" id="Shape"></path>
                        <path d="M35.1512045,7.57207207 C38.6263455,7.57207207 41.2173244,8.41084835 42.9241415,10.0884009 C44.6309585,11.7659535 45.484367,14.0975976 45.484367,17.0833333 L45.484367,31.3963964 L39.9487442,31.3963964 L39.164531,29.4572072 C38.3956945,30.1343844 37.4038954,30.711524 36.1891338,31.1886261 C34.9743721,31.6657282 33.644285,31.9042793 32.1988724,31.9042793 C29.8923629,31.9042793 28.0317786,31.2655781 26.6171194,29.9881757 C25.2024603,28.7107733 24.4951307,26.9485736 24.4951307,24.7015766 C24.4951307,21.9620871 25.5253716,19.9844219 27.5858534,18.7685811 C29.6463352,17.5527402 32.1988724,16.9448198 35.2434649,16.9448198 C36.3813429,16.9448198 37.4884675,17.0371622 38.5648385,17.2218468 C38.5648385,15.8674925 38.2649923,14.8286411 37.6652998,14.1052928 C37.0656074,13.3819444 35.8431574,13.0202703 33.9979498,13.0202703 C32.8293183,13.0202703 31.5991799,13.166479 30.3075346,13.4588964 C29.0158893,13.7513138 27.7857509,14.1745495 26.6171194,14.7286036 L26.6171194,9.09572072 C29.4464377,8.07995495 32.2911328,7.57207207 35.1512045,7.57207207 Z M31.5991799,24.1936937 C31.5991799,24.9016517 31.8452076,25.4710961 32.3372629,25.902027 C32.8293183,26.332958 33.5212711,26.5484234 34.4131215,26.5484234 C35.7970272,26.5484234 37.1809329,26.0867117 38.5648385,25.1632883 L38.5648385,21.4695946 C37.857509,21.3772523 37.1348027,21.3310811 36.3967196,21.3310811 C34.9820605,21.3310811 33.8288057,21.5465465 32.9369554,21.9774775 C32.0451051,22.4084084 31.5991799,23.1471471 31.5991799,24.1936937 Z" id="Shape"></path>
                        <path d="M57.5704767,31.9042793 C54.7411584,31.9042793 52.2655049,31.457958 50.1435161,30.5653153 L50.1435161,24.9324324 C51.0353665,25.4249249 52.1271143,25.8327703 53.4187596,26.1559685 C54.7104049,26.4791667 55.9097899,26.6407658 57.0169144,26.6407658 C58.1855459,26.6407658 59.1081497,26.4714715 59.7847258,26.1328829 C60.4613019,25.7942943 60.79959,25.3171922 60.79959,24.7015766 C60.79959,24.2706456 60.6842645,23.9089715 60.4536135,23.6165541 C60.2229626,23.3241366 59.8154792,23.0394144 59.2311635,22.7623874 C58.6468478,22.4853604 57.7396207,22.1313814 56.5094823,21.7004505 C54.1722194,20.8693694 52.5038442,19.8997748 51.5043567,18.7916667 C50.5048693,17.6835586 50.0051256,16.2676426 50.0051256,14.5439189 C50.0051256,13.1895646 50.3895438,11.9814189 51.1583803,10.919482 C51.9272168,9.85754505 53.0420297,9.02646396 54.5028191,8.42623874 C55.9636084,7.82601351 57.6934905,7.5259009 59.6924654,7.5259009 C62.1219887,7.5259009 64.2901076,7.87987988 66.1968221,8.58783784 L66.1968221,13.8975225 C65.4587391,13.5897147 64.5438237,13.3280781 63.4520759,13.1126126 C62.360328,12.8971471 61.307022,12.7894144 60.2921579,12.7894144 C59.1235264,12.7894144 58.208611,12.9356231 57.5474116,13.2280405 C56.8862122,13.520458 56.5556125,13.8975225 56.5556125,14.3592342 C56.5556125,14.7593844 56.7324449,15.1056682 57.0861097,15.3980856 C57.4397745,15.690503 57.9933368,15.9906156 58.7467965,16.2984234 C59.5002563,16.6062312 60.3229113,16.914039 61.2147617,17.2218468 C63.4290108,18.0529279 65.0128139,19.0225225 65.9661712,20.1306306 C66.9195284,21.2387387 67.3962071,22.7316066 67.3962071,24.6092342 C67.3962071,26.8254505 66.5427986,28.5953453 64.8359815,29.9189189 C63.1291645,31.2424925 60.7073296,31.9042793 57.5704767,31.9042793 Z" id="Path"></path>
                        <path d="M78.0522809,31.9042793 C75.2229626,31.9042793 72.7473091,31.457958 70.6253203,30.5653153 L70.6253203,24.9324324 C71.5171707,25.4249249 72.6089185,25.8327703 73.9005638,26.1559685 C75.1922091,26.4791667 76.3915941,26.6407658 77.4987186,26.6407658 C78.6673501,26.6407658 79.5899539,26.4714715 80.26653,26.1328829 C80.9431061,25.7942943 81.2813942,25.3171922 81.2813942,24.7015766 C81.2813942,24.2706456 81.1660687,23.9089715 80.9354177,23.6165541 C80.7047668,23.3241366 80.2972834,23.0394144 79.7129677,22.7623874 C79.128652,22.4853604 78.2214249,22.1313814 76.9912865,21.7004505 C74.6540236,20.8693694 72.9856484,19.8997748 71.9861609,18.7916667 C70.9866735,17.6835586 70.4869298,16.2676426 70.4869298,14.5439189 C70.4869298,13.1895646 70.871348,11.9814189 71.6401845,10.919482 C72.409021,9.85754505 73.5238339,9.02646396 74.9846233,8.42623874 C76.4454126,7.82601351 78.1752947,7.5259009 80.1742696,7.5259009 C82.6037929,7.5259009 84.7719118,7.87987988 86.6786263,8.58783784 L86.6786263,13.8975225 C85.9405433,13.5897147 85.0256279,13.3280781 83.9338801,13.1126126 C82.8421322,12.8971471 81.7888262,12.7894144 80.7739621,12.7894144 C79.6053306,12.7894144 78.6904152,12.9356231 78.0292158,13.2280405 C77.3680164,13.520458 77.0374167,13.8975225 77.0374167,14.3592342 C77.0374167,14.7593844 77.2142491,15.1056682 77.5679139,15.3980856 C77.9215787,15.690503 78.475141,15.9906156 79.2286007,16.2984234 C79.9820605,16.6062312 80.8047155,16.914039 81.6965659,17.2218468 C83.910815,18.0529279 85.4946181,19.0225225 86.4479754,20.1306306 C87.4013326,21.2387387 87.8780113,22.7316066 87.8780113,24.6092342 C87.8780113,26.8254505 87.0246028,28.5953453 85.3177858,29.9189189 C83.6109687,31.2424925 81.1891338,31.9042793 78.0522809,31.9042793 Z" id="Path"></path>
                        <path d="M102.962583,7.57207207 C106.776012,7.57207207 109.743721,8.60322823 111.86571,10.6655405 C113.987699,12.7278529 115.048693,15.728979 115.048693,19.6689189 C115.048693,22.0698198 114.595079,24.2013889 113.687852,26.0636261 C112.780625,27.9258634 111.48898,29.3648649 109.812916,30.3806306 C108.136853,31.3963964 106.17632,31.9042793 103.931317,31.9042793 C102.147617,31.9042793 100.594567,31.6272523 99.2721681,31.0731982 L99.2721681,41 L92.3526397,41 L92.3526397,9.46509009 C96.1353152,8.20307808 99.6719631,7.57207207 102.962583,7.57207207 Z M102.547412,25.902027 C104.177345,25.902027 105.46899,25.3171922 106.422348,24.1475225 C107.375705,22.9778529 107.852383,21.408033 107.852383,19.4380631 C107.852383,17.4988739 107.39877,16.006006 106.491543,14.9594595 C105.584316,13.9129129 104.346489,13.3896396 102.778063,13.3896396 C101.670938,13.3896396 100.502307,13.5743243 99.2721681,13.9436937 L99.2721681,25.1632883 C100.256279,25.6557808 101.348027,25.902027 102.547412,25.902027 Z" id="Shape"></path>
                        <path d="M130.363916,31.9042793 C128.057406,31.9042793 125.989236,31.4117868 124.159405,30.4268018 C122.329575,29.4418168 120.89185,28.0335961 119.846233,26.2021396 C118.800615,24.3706832 118.277806,22.1929429 118.277806,19.6689189 C118.277806,17.1448949 118.800615,14.9748498 119.846233,13.1587838 C120.89185,11.3427177 122.344951,9.94988739 124.205536,8.98029279 C126.06612,8.0106982 128.165044,7.5259009 130.502307,7.5259009 C132.778063,7.5259009 134.838544,8.0106982 136.683752,8.98029279 C138.52896,9.94988739 139.974372,11.3350225 141.01999,13.1356982 C142.065607,14.9363739 142.588416,17.0063814 142.588416,19.3457207 C142.588416,21.9313063 142.065607,24.1706081 141.01999,26.0636261 C139.974372,27.9566441 138.521271,29.4033408 136.660687,30.4037162 C134.800103,31.4040916 132.701179,31.9042793 130.363916,31.9042793 Z M130.456176,26.0405405 C131.901589,26.0405405 133.085597,25.4787913 134.008201,24.3552928 C134.930805,23.2317943 135.392107,21.6081081 135.392107,19.4842342 C135.392107,17.5758258 134.946181,16.082958 134.054331,15.0056306 C133.162481,13.9283033 131.963096,13.3896396 130.456176,13.3896396 C128.949257,13.3896396 127.742183,13.9206081 126.834956,14.982545 C125.927729,16.044482 125.474116,17.5912162 125.474116,19.6227477 C125.474116,21.6542793 125.935418,23.2317943 126.858022,24.3552928 C127.780625,25.4787913 128.98001,26.0405405 130.456176,26.0405405 Z" id="Shape"></path>
                        <path d="M159.933368,7.75675676 C160.794464,7.75675676 161.501794,7.83370871 162.055356,7.98761261 L162.055356,14.6362613 C161.624808,14.5131381 161.171194,14.4054054 160.694516,14.3130631 C160.217837,14.2207207 159.718093,14.1745495 159.195284,14.1745495 C158.118913,14.1745495 157.150179,14.4131006 156.289083,14.8902027 C155.427986,15.3673048 154.720656,15.9752252 154.167094,16.713964 L154.167094,31.3963964 L147.247565,31.3963964 L147.247565,8.12612613 L153.19836,8.12612613 L154.028703,10.9887387 C154.613019,9.97297297 155.404921,9.18036787 156.404408,8.61092342 C157.403895,8.04147898 158.580215,7.75675676 159.933368,7.75675676 Z" id="Path"></path>
                        <path d="M173.956945,13.2511261 L173.956945,22.7623874 C173.956945,23.9320571 174.202973,24.8170045 174.695028,25.4172297 C175.187084,26.017455 176.017427,26.3175676 177.186058,26.3175676 C178.200923,26.3175676 179.077396,26.1944444 179.815479,25.9481982 L179.815479,31.2117117 C179.29267,31.4271772 178.608406,31.5964715 177.762686,31.7195946 C176.916966,31.8427177 176.032804,31.9042793 175.1102,31.9042793 C172.403895,31.9042793 170.381855,31.2194069 169.04408,29.8496622 C167.706304,28.4799174 167.037417,26.5176426 167.037417,23.9628378 L167.037417,13.2511261 L163.439262,13.2511261 L163.439262,8.12612613 L167.037417,8.12612613 L167.037417,3.0472973 L173.956945,1.15427928 L173.956945,8.12612613 L180,8.12612613 L180,13.2511261 L173.956945,13.2511261 Z" id="Path"></path>
                    </g>
                </g>
            </g>
        </g>
    </g>
</svg>